<svg id="visual" viewBox="0 0 900 600" width="900" height="600" xmlns="http://www.w3.org/2000/svg" xmlns:xlink="http://www.w3.org/1999/xlink" version="1.1"><rect x="0" y="0" width="900" height="600" fill="#0f2027"></rect><path d="M0 352L21.5 350C43 348 86 344 128.8 342.8C171.7 341.7 214.3 343.3 257.2 343.2C300 343 343 341 385.8 344.3C428.7 347.7 471.3 356.3 514.2 357.5C557 358.7 600 352.3 642.8 353.3C685.7 354.3 728.3 362.7 771.2 356.5C814 350.3 857 329.7 878.5 319.3L900 309L900 601L878.5 601C857 601 814 601 771.2 601C728.3 601 685.7 601 642.8 601C600 601 557 601 514.2 601C471.3 601 428.7 601 385.8 601C343 601 300 601 257.2 601C214.3 601 171.7 601 128.8 601C86 601 43 601 21.5 601L0 601Z" fill="#44ff33"></path><path d="M0 415L21.5 408.2C43 401.3 86 387.7 128.8 380.5C171.7 373.3 214.3 372.7 257.2 375.7C300 378.7 343 385.3 385.8 391.7C428.7 398 471.3 404 514.2 406.2C557 408.3 600 406.7 642.8 407.2C685.7 407.7 728.3 410.3 771.2 405.2C814 400 857 387 878.5 380.5L900 374L900 601L878.5 601C857 601 814 601 771.2 601C728.3 601 685.7 601 642.8 601C600 601 557 601 514.2 601C471.3 601 428.7 601 385.8 601C343 601 300 601 257.2 601C214.3 601 171.7 601 128.8 601C86 601 43 601 21.5 601L0 601Z" fill="#35cb27"></path><path d="M0 464L21.5 462.7C43 461.3 86 458.7 128.8 450.5C171.7 442.3 214.3 428.7 257.2 420.8C300 413 343 411 385.8 415.5C428.7 420 471.3 431 514.2 438.8C557 446.7 600 451.3 642.8 446C685.7 440.7 728.3 425.3 771.2 426.7C814 428 857 446 878.5 455L900 464L900 601L878.5 601C857 601 814 601 771.2 601C728.3 601 685.7 601 642.8 601C600 601 557 601 514.2 601C471.3 601 428.7 601 385.8 601C343 601 300 601 257.2 601C214.3 601 171.7 601 128.8 601C86 601 43 601 21.5 601L0 601Z" fill="#269a1b"></path><path d="M0 492L21.5 487.3C43 482.7 86 473.3 128.8 472.8C171.7 472.3 214.3 480.7 257.2 484.3C300 488 343 487 385.8 482.3C428.7 477.7 471.3 469.3 514.2 473.8C557 478.3 600 495.7 642.8 503C685.7 510.3 728.3 507.7 771.2 502.2C814 496.7 857 488.3 878.5 484.2L900 480L900 601L878.5 601C857 601 814 601 771.2 601C728.3 601 685.7 601 642.8 601C600 601 557 601 514.2 601C471.3 601 428.7 601 385.8 601C343 601 300 601 257.2 601C214.3 601 171.7 601 128.8 601C86 601 43 601 21.5 601L0 601Z" fill="#186b10"></path><path d="M0 540L21.5 536.2C43 532.3 86 524.7 128.8 527.5C171.7 530.3 214.3 543.7 257.2 544.3C300 545 343 533 385.8 530.5C428.7 528 471.3 535 514.2 534C557 533 600 524 642.8 526.2C685.7 528.3 728.3 541.7 771.2 549C814 556.3 857 557.7 878.5 558.3L900 559L900 601L878.5 601C857 601 814 601 771.2 601C728.3 601 685.7 601 642.8 601C600 601 557 601 514.2 601C471.3 601 428.7 601 385.8 601C343 601 300 601 257.2 601C214.3 601 171.7 601 128.8 601C86 601 43 601 21.5 601L0 601Z" fill="#0b4006"></path></svg>